<svg xmlns="http://www.w3.org/2000/svg" viewBox="0 0 512 512" width="512" height="512">
  <!-- White canvas (PERI dominant) -->
  <rect width="512" height="512" fill="#FFFFFF"/>
  <!-- Tricolor frame: Yellow L (left+top) / Red (right) / Grey (bottom) -->
  <rect x="0" y="0" width="56" height="512" fill="#FFC300"/>
  <rect x="0" y="0" width="512" height="56" fill="#FFC300"/>
  <rect x="456" y="0" width="56" height="512" fill="#DC0032"/>
  <rect x="0" y="456" width="512" height="56" fill="#333333"/>
  <!-- PERI logo centered -->
  <g transform="translate(116, 175) scale(3.4)">
    <polygon fill="#FFC300" points="78.5,44.03 0,44.03 0,6.56 6.54,0 6.54,37.47 85.04,37.47 "/>
    <path fill="#DC0032" d="M24.71,12.52c0,2.44-1.8,3.12-2.82,3.14c-1.04,0.01-2.18,0-2.18,0V9.38c0,0,1.09,0.01,2.18,0.01 C22.75,9.4,24.71,9.98,24.71,12.52 M30.28,9.85c-0.98-3.3-2.57-4.43-3.97-5.18c-1.41-0.74-4.17-1.37-6.62-1.37h-6.55v28.21h6.55 l0-9.76c0,0,0.77,0,2.04-0.11c1.92-0.18,4.09-0.65,6.06-2.08c1.37-0.99,2.07-2.41,2.53-4.19C30.65,14.05,30.78,11.53,30.28,9.85"/>
    <polygon fill="#DC0032" points="32.75,3.3 46.92,3.3 46.92,8.94 39.51,8.94 39.51,14.8 46.92,14.8 46.92,20.23 39.51,20.23 39.51,26.09 46.92,26.09 46.92,31.51 32.75,31.51 "/>
    <path fill="#DC0032" d="M61.7,12.52c0,2.44-1.79,3.12-2.81,3.14c-1.03,0.01-2.18,0-2.18,0V9.38c0,0,1.09,0.01,2.18,0.01 C59.75,9.4,61.7,9.98,61.7,12.52 M67.3,15.39c0.33-1.33,0.47-3.84-0.03-5.52c-0.97-3.3-2.56-4.43-3.96-5.18 c-1.4-0.74-4.17-1.38-6.61-1.38h-6.53v28.21h6.53v-9.76h0.54l5.55,9.76h7.18l-6.27-11.26c0,0,0.72-0.42,1.07-0.68 C66.14,18.58,66.85,17.16,67.3,15.39"/>
    <rect fill="#DC0032" x="71.97" y="3.3" width="6.51" height="28.21"/>
  </g>
  <!-- TETRIS wordmark -->
  <text x="256" y="395" font-family="Arial Black, Arial, sans-serif" font-weight="900" font-size="64" fill="#333333" text-anchor="middle" letter-spacing="6">TETRIS</text>
</svg>
